<svg xmlns="http://www.w3.org/2000/svg" width="128" height="128" viewBox="0 0 100 100">
  <defs><linearGradient id="bg-grad" x1="14.644660940672622%" y1="14.64466094067263%" x2="85.35533905932738%" y2="85.35533905932738%">
      <stop offset="0%" stop-color="#2C3E50"/>
      <stop offset="100%" stop-color="#4D96FF"/>
    </linearGradient><filter id="shadow" x="-20%" y="-20%" width="140%" height="140%">
      <feDropShadow dx="0" dy="1.5" stdDeviation="2.5" flood-color="#000000" flood-opacity="0.25"/>
    </filter></defs>
  <path d="M90.04532591162172,9.95467408837829L91.34333380354738,11.44671751696692L92.4374604312797,13.109678460487665L93.33173460229844,14.910653188415118L94.04178823076232,16.81213210493948L94.59082644887019,18.777167185500197L95.00531614427524,20.773205961653154L95.31149144199938,22.774109203098252L95.53311379791492,24.760582880986796L95.69040149602111,26.719577640158928L95.79980205600145,28.643201559303467L95.87425871285983,30.527532464106965L95.92370238936414,32.37154229705311L95.95559943520215,34.17621812918095L95.97546490640914,35.94388978378481L95.98730331363666,37.677739215025966L95.99396833140625,39.38145572864181L95.99744743465521,41.05900194810576L95.99908309481556,42.7144609685858L95.99974325655593,44.35194172259744L95.99995284308311,45.97552560350313L95.99999636280563,47.589242343597384L95.99999998509284,49.1970670135622L95.99999998509284,50.8029329864378L95.99999636280563,52.410757656402616L95.99995284308311,54.02447439649687L95.99974325655593,55.64805827740256L95.99908309481556,57.2855390314142L95.99744743465521,58.94099805189424L95.99396833140625,60.618544271358196L95.98730331363666,62.322260784974034L95.97546490640914,64.05611021621519L95.95559943520215,65.82378187081905L95.92370238936414,67.62845770294687L95.87425871285983,69.47246753589303L95.79980205600145,71.35679844069654L95.69040149602111,73.28042235984107L95.53311379791492,75.23941711901321L95.31149144199938,77.22589079690177L95.00531614427524,79.22679403834687L94.59082644887019,81.22283281449981L94.04178823076232,83.18786789506052L93.33173460229844,85.08934681158487L92.4374604312797,86.89032153951234L91.34333380354738,88.55328248303309L90.04532591162172,90.04532591162172L88.55328248303309,91.34333380354737L86.89032153951234,92.4374604312797L85.08934681158489,93.33173460229844L83.18786789506055,94.04178823076234L81.22283281449981,94.59082644887019L79.22679403834687,95.00531614427524L77.22589079690177,95.31149144199938L75.23941711901321,95.53311379791492L73.28042235984108,95.69040149602111L71.35679844069654,95.79980205600145L69.47246753589303,95.87425871285983L67.62845770294689,95.92370238936414L65.82378187081903,95.95559943520215L64.0561102162152,95.97546490640913L62.32226078497405,95.98730331363666L60.6185442713582,95.99396833140625L58.94099805189424,95.99744743465521L57.2855390314142,95.99908309481556L55.64805827740257,95.99974325655592L54.02447439649687,95.99995284308311L52.41075765640263,95.99999636280563L50.802932986437796,95.99999998509284L49.19706701356221,95.99999998509284L47.58924234359738,95.99999636280563L45.97552560350314,95.99995284308311L44.35194172259744,95.99974325655593L42.714460968585804,95.99908309481556L41.05900194810576,95.99744743465521L39.381455728641804,95.99396833140625L37.67773921502596,95.98730331363666L35.94388978378481,95.97546490640913L34.17621812918097,95.95559943520215L32.3715422970531,95.92370238936415L30.527532464106972,95.87425871285983L28.643201559303474,95.79980205600147L26.719577640158928,95.69040149602111L24.760582880986803,95.53311379791492L22.774109203098245,95.31149144199938L20.773205961653144,95.00531614427524L18.77716718550021,94.59082644887019L16.812132104939465,94.04178823076234L14.910653188415132,93.33173460229844L13.109678460487672,92.4374604312797L11.446717516966928,91.34333380354738L9.95467408837829,90.04532591162172L8.656666196452626,88.55328248303309L7.562539568720311,86.89032153951236L6.668265397701553,85.08934681158487L5.958211769237671,83.18786789506052L5.409173551129811,81.2228328144998L4.994683855724759,79.22679403834687L4.688508558000613,77.22589079690177L4.4668862020850995,75.23941711901323L4.309598503978897,73.28042235984105L4.200197943998539,71.35679844069654L4.125741287140173,69.47246753589303L4.076297610635848,67.62845770294692L4.044400564797854,65.82378187081906L4.02453509359087,64.0561102162152L4.012696686363341,62.32226078497403L4.006031668593749,60.6185442713582L4.002552565344786,58.94099805189424L4.0009169051844395,57.28553903141421L4.000256743444076,55.64805827740259L4.000047156916892,54.02447439649687L4.000003637194375,52.410757656402616L4.000000014907165,50.8029329864378L4.000000014907165,49.19706701356221L4.000003637194375,47.5892423435974L4.000047156916892,45.975525603503144L4.000256743444076,44.351941722597424L4.0009169051844395,42.714460968585804L4.002552565344779,41.05900194810579L4.0060316685937565,39.38145572864181L4.012696686363341,37.67773921502599L4.02453509359087,35.94388978378481L4.044400564797847,34.176218129180974L4.076297610635855,32.37154229705311L4.125741287140173,30.527532464106976L4.200197943998532,28.643201559303503L4.309598503978897,26.719577640158928L4.466886202085092,24.76058288098678L4.6885085580006205,22.774109203098252L4.994683855724759,20.773205961653176L5.409173551129818,18.77716718550019L5.958211769237671,16.812132104939494L6.668265397701539,14.91065318841516L7.5625395687202825,13.109678460487672L8.656666196452633,11.446717516966906L9.954674088378276,9.95467408837829L11.446717516966892,8.656666196452647L13.109678460487665,7.56253956872029L14.91065318841514,6.668265397701553L16.81213210493948,5.958211769237678L18.777167185500172,5.409173551129825L20.773205961653158,4.994683855724766L22.774109203098227,4.6885085580006205L24.760582880986767,4.4668862020850995L26.719577640158917,4.309598503978897L28.64320155930348,4.200197943998532L30.527532464106958,4.125741287140173L32.37154229705309,4.076297610635848L34.17621812918096,4.044400564797854L35.94388978378479,4.024535093590863L37.67773921502597,4.012696686363341L39.3814557286418,4.006031668593749L41.059001948105774,4.002552565344786L42.71446096858579,4.0009169051844395L44.35194172259741,4.000256743444076L45.97552560350313,4.000047156916892L47.589242343597405,4.000003637194389L49.1970670135622,4.000000014907165L50.80293298643779,4.000000014907165L52.41075765640258,4.000003637194389L54.024474396496856,4.000047156916892L55.648058277402576,4.000256743444076L57.28553903141419,4.0009169051844395L58.94099805189421,4.002552565344779L60.61854427135819,4.0060316685937565L62.32226078497401,4.012696686363341L64.05611021621519,4.02453509359087L65.82378187081902,4.044400564797847L67.62845770294689,4.076297610635855L69.47246753589302,4.1257412871401655L71.3567984406965,4.200197943998532L73.28042235984107,4.309598503978897L75.23941711901321,4.466886202085092L77.22589079690175,4.6885085580006205L79.22679403834682,4.994683855724759L81.22283281449981,5.409173551129818L83.1878678950605,5.958211769237664L85.08934681158485,6.668265397701539L86.89032153951231,7.5625395687202825L88.55328248303309,8.656666196452633L90.0453259116217,9.954674088378276Z" fill="url(#bg-grad)" filter="url(#shadow)"/>
  
  <g transform="translate(27.5, 27.5) scale(1.875)">
    <path d="M12 2l3.09 6.26L22 9.27l-5 4.87 1.18 6.88L12 17.77l-6.18 3.25L7 14.14 2 9.27l6.91-1.01L12 2z" fill="#FFFFFF" stroke="#FFFFFF" stroke-width="2" stroke-linecap="round" stroke-linejoin="round"/>
  </g>
</svg>